<?xml version="1.0" encoding="UTF-8" standalone="no"?>
<!-- Created with Inkscape (http://www.inkscape.org/) -->

<svg
   xmlns:dc="http://purl.org/dc/elements/1.1/"
   xmlns:cc="http://creativecommons.org/ns#"
   xmlns:rdf="http://www.w3.org/1999/02/22-rdf-syntax-ns#"
   xmlns:svg="http://www.w3.org/2000/svg"
   xmlns="http://www.w3.org/2000/svg"
   xmlns:xlink="http://www.w3.org/1999/xlink"
   xmlns:sodipodi="http://sodipodi.sourceforge.net/DTD/sodipodi-0.dtd"
   xmlns:inkscape="http://www.inkscape.org/namespaces/inkscape"
   width="744.09448819"
   height="1052.3622047"
   id="svg2"
   version="1.1"
   inkscape:version="0.48.4 r9939"
   sodipodi:docname="logos.svg">
  <defs
     id="defs4">
    <linearGradient
       id="linearGradient3798">
      <stop
         style="stop-color:#ffffff;stop-opacity:1;"
         offset="0"
         id="stop3800" />
      <stop
         style="stop-color:#ffffff;stop-opacity:0.35294119;"
         offset="1"
         id="stop3802" />
    </linearGradient>
    <clipPath
       clipPathUnits="userSpaceOnUse"
       id="clipPath2999">
      <rect
         y="105.99666"
         x="-289.01624"
         height="1249.9791"
         width="357.94699"
         id="rect3001"
         style="fill:#f2f2f2;fill-opacity:1;fill-rule:nonzero;stroke:none" />
    </clipPath>
    <clipPath
       clipPathUnits="userSpaceOnUse"
       id="clipPath3011">
      <rect
         y="-742.57477"
         x="-289.01624"
         height="1050.3152"
         width="357.94699"
         id="rect3013"
         style="fill:#f2f2f2;fill-opacity:1;fill-rule:nonzero;stroke:none" />
    </clipPath>
    <radialGradient
       inkscape:collect="always"
       xlink:href="#linearGradient3798"
       id="radialGradient3804"
       cx="287.93024"
       cy="167.28419"
       fx="287.93024"
       fy="167.28419"
       r="152.53304"
       gradientTransform="matrix(1.1179021,0.00642216,-0.00602379,0.95362503,-22.903343,8.2868089)"
       gradientUnits="userSpaceOnUse" />
    <radialGradient
       inkscape:collect="always"
       xlink:href="#linearGradient3798"
       id="radialGradient3810"
       gradientUnits="userSpaceOnUse"
       gradientTransform="matrix(1.1179021,0.00642216,-0.00602379,0.95362503,-22.903343,8.2868089)"
       cx="287.93024"
       cy="167.28419"
       fx="287.93024"
       fy="167.28419"
       r="152.53304" />
    <radialGradient
       inkscape:collect="always"
       xlink:href="#linearGradient3798"
       id="radialGradient3814"
       gradientUnits="userSpaceOnUse"
       gradientTransform="matrix(1.1179021,0.00642216,-0.00602379,0.95362503,-22.903343,8.2868089)"
       cx="287.93024"
       cy="167.28419"
       fx="287.93024"
       fy="167.28419"
       r="152.53304" />
    <radialGradient
       inkscape:collect="always"
       xlink:href="#linearGradient3798"
       id="radialGradient3822"
       gradientUnits="userSpaceOnUse"
       gradientTransform="matrix(1.1179021,0.00642216,-0.00602379,0.95362503,-22.903343,8.2868089)"
       cx="287.93024"
       cy="167.28419"
       fx="287.93024"
       fy="167.28419"
       r="152.53304" />
    <radialGradient
       inkscape:collect="always"
       xlink:href="#linearGradient3798"
       id="radialGradient3826"
       gradientUnits="userSpaceOnUse"
       gradientTransform="matrix(1.1179021,0.00642216,-0.00602379,0.95362503,-22.903343,8.2868089)"
       cx="287.93024"
       cy="167.28419"
       fx="287.93024"
       fy="167.28419"
       r="152.53304" />
  </defs>
  <sodipodi:namedview
     id="base"
     pagecolor="#ffffff"
     bordercolor="#666666"
     borderopacity="1.0"
     inkscape:pageopacity="0.0"
     inkscape:pageshadow="2"
     inkscape:zoom="0.9899495"
     inkscape:cx="90.225125"
     inkscape:cy="827.80027"
     inkscape:document-units="px"
     inkscape:current-layer="layer1"
     showgrid="false"
     inkscape:window-width="1920"
     inkscape:window-height="1003"
     inkscape:window-x="-9"
     inkscape:window-y="-9"
     inkscape:window-maximized="1" />
  <metadata
     id="metadata7">
    <rdf:RDF>
      <cc:Work
         rdf:about="">
        <dc:format>image/svg+xml</dc:format>
        <dc:type
           rdf:resource="http://purl.org/dc/dcmitype/StillImage" />
        <dc:title></dc:title>
      </cc:Work>
    </rdf:RDF>
  </metadata>
  <g
     inkscape:label="Layer 1"
     inkscape:groupmode="layer"
     id="layer1">
    <rect
       style="fill:#000000;fill-opacity:1;fill-rule:nonzero;stroke:none"
       id="rect3852"
       width="675.71429"
       height="872.85712"
       x="-1530.0531"
       y="7.4549994" />
    <path
       style="fill:#f2f2f2;fill-opacity:0.78604653000000002;fill-rule:nonzero;stroke:#919191;stroke-opacity:1;stroke-linejoin:round;stroke-linecap:round;stroke-width:2;stroke-miterlimit:4;stroke-dasharray:none"
       d="m -476.70089,75.205357 c -74.48588,0.16946 -149.41949,9.79783 -220.3125,33.187503 -14.19948,4.67983 -6.95688,20.78202 -8.6875,33.13565 0,223.37666 0,446.75331 0,670.12997 151.125,0 302.25,0 453.375,0 0,-57.39062 0,-114.78125 0,-172.17187 35.0625,0 70.125,0 105.1875,0 0,-133.61458 0,-267.22917 0,-400.84375 -35.0625,0 -70.125,0 -105.1875,0 0,-43.41667 0,-86.83333 0,-130.25 -72.52763,-22.216613 -148.53419,-33.283963 -224.375,-33.187503 z m 224.375,212.687503 c 16.48958,0 32.97917,0 49.46875,0 0,99.75 0,199.5 0,299.25 -16.48958,0 -32.97917,0 -49.46875,0 0,-99.75 0,-199.5 0,-299.25 z"
       id="rect2987"
       inkscape:connector-curvature="0" />
    <g
       id="g3795"
       transform="matrix(1,0,0,1.0555556,-150.85715,-289.90902)">
      <rect
         y="514.81116"
         x="-535.71429"
         height="501.8367"
         width="414.28568"
         id="rect3017"
         style="fill:#f9c700;fill-opacity:0.70588235;fill-rule:nonzero;stroke:none" />
      <rect
         y="399.50504"
         x="-535"
         height="126.32653"
         width="412.85715"
         id="rect3787"
         style="fill:#fdfccf;fill-opacity:1;fill-rule:nonzero;stroke:none" />
    </g>
    <path
       inkscape:connector-curvature="0"
       id="path3838"
       d="m 1249.8929,267.21876 0,49.25 78.6875,0 0,299.25 -78.6875,0 0,52.34375 134.4062,0 0,-400.84375 -134.4062,0 z"
       style="fill:#f2f2f2;fill-opacity:1;fill-rule:nonzero;stroke:none" />
    <path
       id="path3840"
       d="m 1054.7277,103.77679 c -27.2003,0 -53.7575,1.38069 -79.40627,3.96875 -25.64872,2.58806 -50.39974,6.3968 -73.96875,11.3125 -23.56901,4.91569 -45.97634,10.92334 -66.9375,17.90625 -3.04058,1.89144 -4.80811,3.68946 -5.5,5.40625 l -3.1875,0 0,717.15625 3.1875,0 c 0.69188,-1.71679 2.45942,-3.51481 5.5,-5.40625 20.96116,-6.98291 43.3685,-12.99056 66.9375,-17.90625 23.56901,-4.9157 48.32003,-8.72444 73.96875,-11.3125 25.64877,-2.58806 52.20597,-3.96875 79.40627,-3.96875 27.2003,0 53.7575,1.38069 79.4062,3.96875 25.6487,2.58806 50.3685,6.3968 73.9375,11.3125 23.569,4.91569 50.0701,10.92334 71.0313,17.90625 l 0,-717.15625 c -20.9612,-6.98291 -47.4623,-12.99056 -71.0313,-17.90625 -23.569,-4.9157 -48.2887,-8.72444 -73.9375,-11.3125 -25.6487,-2.58806 -52.2059,-3.96875 -79.4062,-3.96875 z"
       style="fill:#f2f2f2;fill-opacity:1;fill-rule:nonzero;stroke:none"
       inkscape:connector-curvature="0" />
    <g
       id="g3894"
       transform="matrix(0.88120123,0,0,0.88120123,-45.622425,91.957168)">
      <path
         transform="matrix(0.24096384,0,0,0.24096384,-432.92599,679.58129)"
         d="m 98.57143,310.21933 c 0,14.5961 -12.152271,26.42857 -27.142856,26.42857 -14.990586,0 -27.142857,-11.83247 -27.142857,-26.42857 0,-14.5961 12.152271,-26.42857 27.142857,-26.42857 14.990585,0 27.142856,11.83247 27.142856,26.42857 z"
         sodipodi:ry="26.428572"
         sodipodi:rx="27.142857"
         sodipodi:cy="310.21933"
         sodipodi:cx="71.428574"
         id="path3866"
         style="fill:none;stroke:#d4af19;stroke-width:5;stroke-miterlimit:4;stroke-opacity:1;stroke-dasharray:none"
         sodipodi:type="arc" />
      <path
         sodipodi:type="arc"
         style="fill:none;stroke:#d4af19;stroke-width:5;stroke-miterlimit:4;stroke-opacity:1;stroke-dasharray:none"
         id="path3868"
         sodipodi:cx="71.428574"
         sodipodi:cy="310.21933"
         sodipodi:rx="27.142857"
         sodipodi:ry="26.428572"
         d="m 98.57143,310.21933 c 0,14.5961 -12.152271,26.42857 -27.142856,26.42857 -14.990586,0 -27.142857,-11.83247 -27.142857,-26.42857 0,-14.5961 12.152271,-26.42857 27.142857,-26.42857 14.990585,0 27.142856,11.83247 27.142856,26.42857 z"
         transform="matrix(0.24096384,0,0,0.24096384,-421.14028,660.29558)" />
      <path
         transform="matrix(0.24096384,0,0,0.24096384,-439.71171,642.08129)"
         d="m 98.57143,310.21933 c 0,14.5961 -12.152271,26.42857 -27.142856,26.42857 -14.990586,0 -27.142857,-11.83247 -27.142857,-26.42857 0,-14.5961 12.152271,-26.42857 27.142857,-26.42857 14.990585,0 27.142856,11.83247 27.142856,26.42857 z"
         sodipodi:ry="26.428572"
         sodipodi:rx="27.142857"
         sodipodi:cy="310.21933"
         sodipodi:cx="71.428574"
         id="path3870"
         style="fill:none;stroke:#d4af19;stroke-width:5;stroke-miterlimit:4;stroke-opacity:1;stroke-dasharray:none"
         sodipodi:type="arc" />
    </g>
    <path
       sodipodi:type="arc"
       style="fill:#f5f5f5;fill-opacity:0.33953486;fill-rule:nonzero;stroke:none"
       id="path3845"
       sodipodi:cx="-392.14285"
       sodipodi:cy="481.64789"
       sodipodi:rx="79.285713"
       sodipodi:ry="279.28571"
       d="m -312.85714,481.64789 a 79.285713,279.28571 0 1 1 -158.57143,0 79.285713,279.28571 0 1 1 158.57143,0 z"
       transform="matrix(0.18918917,0,0,0.85307045,-610.9537,105.64545)" />
    <path
       transform="matrix(0.80180179,0,0,0.85307045,-165.00776,98.502593)"
       d="m -312.85714,481.64789 a 79.285713,279.28571 0 1 1 -158.57143,0 79.285713,279.28571 0 1 1 158.57143,0 z"
       sodipodi:ry="279.28571"
       sodipodi:rx="79.285713"
       sodipodi:cy="481.64789"
       sodipodi:cx="-392.14285"
       id="path3847"
       style="fill:#f5f5f5;fill-opacity:0.33953486;fill-rule:nonzero;stroke:none"
       sodipodi:type="arc" />
    <path
       sodipodi:type="arc"
       style="fill:#f5f5f5;fill-opacity:0.33953486;fill-rule:nonzero;stroke:none"
       id="path3849"
       sodipodi:cx="-392.14285"
       sodipodi:cy="481.64789"
       sodipodi:rx="79.285713"
       sodipodi:ry="279.28571"
       d="m -312.85714,481.64789 a 79.285713,279.28571 0 1 1 -158.57143,0 79.285713,279.28571 0 1 1 158.57143,0 z"
       transform="matrix(0.19819818,0,0,0.85307045,-208.13518,106.06526)" />
    <g
       id="g3889"
       transform="matrix(1.4070274,0,0,1.4070274,380.62135,-598.07553)">
      <path
         sodipodi:type="arc"
         style="fill:none;stroke:#d4af19;stroke-width:5;stroke-miterlimit:4;stroke-opacity:1;stroke-dasharray:none"
         id="path3872"
         sodipodi:cx="71.428574"
         sodipodi:cy="310.21933"
         sodipodi:rx="27.142857"
         sodipodi:ry="26.428572"
         d="m 98.57143,310.21933 c 0,14.5961 -12.152271,26.42857 -27.142856,26.42857 -14.990586,0 -27.142857,-11.83247 -27.142857,-26.42857 0,-14.5961 12.152271,-26.42857 27.142857,-26.42857 14.990585,0 27.142856,11.83247 27.142856,26.42857 z"
         transform="matrix(-0.24096384,0,0,0.24096384,-549.06609,676.55083)" />
      <path
         transform="matrix(-0.24096384,0,0,0.24096384,-574.48886,663.32604)"
         d="m 98.57143,310.21933 c 0,14.5961 -12.152271,26.42857 -27.142856,26.42857 -14.990586,0 -27.142857,-11.83247 -27.142857,-26.42857 0,-14.5961 12.152271,-26.42857 27.142857,-26.42857 14.990585,0 27.142856,11.83247 27.142856,26.42857 z"
         sodipodi:ry="26.428572"
         sodipodi:rx="27.142857"
         sodipodi:cy="310.21933"
         sodipodi:cx="71.428574"
         id="path3874"
         style="fill:none;stroke:#d4af19;stroke-width:5;stroke-miterlimit:4;stroke-opacity:1;stroke-dasharray:none"
         sodipodi:type="arc" />
      <path
         sodipodi:type="arc"
         style="fill:none;stroke:#d4af19;stroke-width:5;stroke-miterlimit:4;stroke-opacity:1;stroke-dasharray:none"
         id="path3876"
         sodipodi:cx="71.428574"
         sodipodi:cy="310.21933"
         sodipodi:rx="27.142857"
         sodipodi:ry="26.428572"
         d="m 98.57143,310.21933 c 0,14.5961 -12.152271,26.42857 -27.142856,26.42857 -14.990586,0 -27.142857,-11.83247 -27.142857,-26.42857 0,-14.5961 12.152271,-26.42857 27.142857,-26.42857 14.990585,0 27.142856,11.83247 27.142856,26.42857 z"
         transform="matrix(-0.24096384,0,0,0.24096384,-553.39205,647.13205)" />
    </g>
    <path
       sodipodi:type="arc"
       style="fill:#f5f5f5;fill-opacity:0.33953486;fill-rule:nonzero;stroke:none"
       id="path3862"
       sodipodi:cx="-392.14285"
       sodipodi:cy="481.64789"
       sodipodi:rx="79.285713"
       sodipodi:ry="279.28571"
       d="m -312.85714,481.64789 a 79.285713,279.28571 0 1 1 -158.57143,0 79.285713,279.28571 0 1 1 158.57143,0 z"
       transform="matrix(0.5135135,0,0,0.85307045,-406.62938,107.07402)" />
    <g
       id="g3884"
       transform="matrix(1,0,0,-1,-58.588892,1334.7953)">
      <path
         transform="matrix(-0.24096384,0,0,0.24096384,-495.02293,662.40869)"
         d="m 98.57143,310.21933 c 0,14.5961 -12.152271,26.42857 -27.142856,26.42857 -14.990586,0 -27.142857,-11.83247 -27.142857,-26.42857 0,-14.5961 12.152271,-26.42857 27.142857,-26.42857 14.990585,0 27.142856,11.83247 27.142856,26.42857 z"
         sodipodi:ry="26.428572"
         sodipodi:rx="27.142857"
         sodipodi:cy="310.21933"
         sodipodi:cx="71.428574"
         id="path3878"
         style="fill:none;stroke:#d4af19;stroke-width:5;stroke-miterlimit:4;stroke-opacity:1;stroke-dasharray:none"
         sodipodi:type="arc" />
      <path
         sodipodi:type="arc"
         style="fill:none;stroke:#d4af19;stroke-width:5;stroke-miterlimit:4;stroke-opacity:1;stroke-dasharray:none"
         id="path3880"
         sodipodi:cx="71.428574"
         sodipodi:cy="310.21933"
         sodipodi:rx="27.142857"
         sodipodi:ry="26.428572"
         d="m 98.57143,310.21933 c 0,14.5961 -12.152271,26.42857 -27.142856,26.42857 -14.990586,0 -27.142857,-11.83247 -27.142857,-26.42857 0,-14.5961 12.152271,-26.42857 27.142857,-26.42857 14.990585,0 27.142856,11.83247 27.142856,26.42857 z"
         transform="matrix(-0.24096384,0,0,0.24096384,-506.80864,643.12298)" />
      <path
         transform="matrix(-0.24096384,0,0,0.24096384,-488.23721,624.90869)"
         d="m 98.57143,310.21933 c 0,14.5961 -12.152271,26.42857 -27.142856,26.42857 -14.990586,0 -27.142857,-11.83247 -27.142857,-26.42857 0,-14.5961 12.152271,-26.42857 27.142857,-26.42857 14.990585,0 27.142856,11.83247 27.142856,26.42857 z"
         sodipodi:ry="26.428572"
         sodipodi:rx="27.142857"
         sodipodi:cy="310.21933"
         sodipodi:cx="71.428574"
         id="path3882"
         style="fill:none;stroke:#d4af19;stroke-width:5;stroke-miterlimit:4;stroke-opacity:1;stroke-dasharray:none"
         sodipodi:type="arc" />
    </g>
    <path
       transform="matrix(0.5135135,0,0,0.85307045,-155.20081,105.64545)"
       d="m -312.85714,481.64789 a 79.285713,279.28571 0 1 1 -158.57143,0 79.285713,279.28571 0 1 1 158.57143,0 z"
       sodipodi:ry="279.28571"
       sodipodi:rx="79.285713"
       sodipodi:cy="481.64789"
       sodipodi:cx="-392.14285"
       id="path3864"
       style="fill:#f5f5f5;fill-opacity:0.33953486;fill-rule:nonzero;stroke:none"
       sodipodi:type="arc" />
    <rect
       style="fill:#ff0000;fill-opacity:1;stroke:none"
       id="rect3820"
       width="693.97479"
       height="643.46716"
       x="-118.18784"
       y="-88.100037" />
    <path
       transform="matrix(0.98339353,0,0,1.0311974,-62.703856,-15.568035)"
       d="m 422.24376,224.03709 a 152.53304,145.46196 0 1 1 -305.06607,0 152.53304,145.46196 0 1 1 305.06607,0 z"
       sodipodi:ry="145.46196"
       sodipodi:rx="152.53304"
       sodipodi:cy="224.03709"
       sodipodi:cx="269.71072"
       id="path3796"
       style="fill:url(#radialGradient3826);fill-opacity:1;fill-rule:evenodd;stroke:none"
       sodipodi:type="arc"
       inkscape:export-filename="C:\Projects\GitHub\BrewmasterEngine\Brewmaster.Sample.Win8\Content\ball.png"
       inkscape:export-xdpi="60"
       inkscape:export-ydpi="60" />
  </g>
</svg>
